<svg version="1" xmlns="http://www.w3.org/2000/svg" width="400" height="400" viewBox="0 0 300.000000 300.000000"><path d="M138.1 1.1C78.2 5.4 26.4 46.5 7.7 104.5c-6.5 20.3-8.5 46.7-5.1 69.3 2.9 19.8 12.4 43.6 24.4 61 32.7 47.6 91.1 72 148.5 62.2 54.8-9.4 99.8-48.5 116.8-101.5 4.7-14.8 6.9-29 6.9-45.5 0-40.2-15.1-76.9-43.2-105.1-32-32.1-72.2-47-117.9-43.8zm34.4 7.4c59.8 9 108.2 56.8 118.5 117 9.7 56.7-15.2 113.6-63.5 144.7-47.5 30.6-108.6 30.4-156-.7C31.2 243.1 7 198.2 7 149.9 7 79.4 58.2 19.4 127.5 8.5c11.2-1.8 33.1-1.8 45 0z"/><path d="M138.9 34c-10.4 1-25.5 4.9-35.2 9.1-8.2 3.6-20.9 11.1-21.5 12.7-.2.6 1.1 1.3 2.7 1.7 2.5.5 4.3-.1 8.8-2.8 9-5.4 19.1-9.5 31-12.4 9.2-2.3 12.9-2.7 25.3-2.7s16.1.4 25.3 2.7c11.2 2.8 23.5 7.7 30.6 12.2 4.1 2.5 7 3 10.5 1.6 1.6-.6.8-1.4-4.8-5-14.8-9.3-33.4-15.4-52.1-17.1-6-.5-11.2-.9-11.5-.9-.3.1-4.4.5-9.1.9z"/><path d="M133.1 59.6l-.1 11.1-2.4-.4c-2.8-.6-6.9 2.9-6 5.1.8 2.1 4.6 2.7 7.1 1 2.1-1.3 2.3-2.1 2.3-11.5 0-9.2.1-10 1.6-8.8 1.3 1 1.5 2.5 1.1 6.6-.6 6.1.8 6.3 1.8.2.6-3.3.3-4.6-1.8-7.7-1.4-2-2.7-4.4-3-5.2-.3-.8-.6 3.5-.6 9.6zM164.3 58.2l-8.3 2V82l-2.7-.2c-6.3-.4-10.4 3.2-8.3 7.2.8 1.5 2.1 2 4.9 2 6.4 0 7.1-1.7 7.1-16.1V62.4l7.8-1.9c4.2-1 8.3-2 9-2.2.9-.4 1.2 1.9 1.2 9.7 0 9.8-.1 10.1-2.1 9.5-5.1-1.6-10.9 4.3-7.9 8 2.5 3 10.4 1 11.4-2.9.3-1.1.6-7.6.6-14.4 0-14.2 1-13.4-12.7-10zM67.5 60.9c-5.9 2.7-10.1 7.3-11.4 12.7-1.8 7.2.6 14.6 6.6 20.9 2.3 2.3 27 28.8 35.8 38.3 1 1.2 1.8.9 4.4-1.5l3.2-2.8-16-15.9C81.2 103.8 74 96.5 74 96.4 74 95.5 95.6 79 96.9 79c.9 0 12.5 10.9 25.8 24.2 17.8 17.8 24.4 23.8 24.8 22.6.4-1.1-3.4-5.6-12.7-14.9-7.3-7.4-20.5-21-29.3-30.3-12.2-12.8-17.2-17.4-21-19.2-6-2.8-11.6-3-17-.5zm18 5.8c2.2 1.2 4.8 3 5.9 4.2 1.8 2 1.8 2.1-1 5.4-3.2 3.6-10.4 9.6-16.8 13.9l-4 2.7-2.4-2.2C63.6 87.4 61 81.6 61 77c0-3.3.7-4.8 3.8-8.1 5.7-6.1 11.7-6.8 20.7-2.2z"/><path d="M217.4 61.5c-3.5 1.7-8.4 6.2-16.4 14.7-28 29.9-66.6 67.8-69.3 67.8-.5 0-1.8 1.1-2.9 2.5-2.8 3.6-4.8 3.1-10-2.3l-4.7-4.7 4.5-5.3c4-4.6 5-5.2 8.4-5.2 2.2 0 4.7-.8 6.1-1.9l2.4-2-4-4.3c-2.2-2.3-4.2-4.5-4.3-4.8-.9-1.3-5.2 5.4-5.2 8 0 2.2-1.3 4-6.4 8.4-3.5 3.1-6.8 5.6-7.3 5.6-.6 0-5.8 5.2-11.7 11.5-5.9 6.3-17.6 17.7-25.9 25.2-24.3 21.9-30.4 28.4-31.3 32.7-.9 5.1.8 8.4 5.3 10.3 4.8 2 11.6.6 17.8-3.7 3.9-2.7 45.5-40.9 49.8-45.8 1.1-1.1 2.4-1.9 3-1.6.7.2 3.2-1.9 5.7-4.8s5.6-6.3 7-7.6c1.4-1.3 4.4-4.2 6.7-6.4l4.2-4 5.8 5c3.2 2.8 7.9 7.2 10.6 9.9l4.7 4.9-24.8 24.1c-13.6 13.2-27.5 25.9-30.7 28.2-11.2 7.9-27.5 10.5-37 5.9-9.8-4.8-6 1.5 11.2 18.3 16 15.6 34.4 31.9 36.1 31.9.8 0 .3-1.8-1.5-5.2-2.4-4.6-2.8-6.4-2.8-13.8 0-19.5 4.7-25.3 115.8-144.4 17.9-19.2 21.2-24.3 20.5-31.8-.7-6.6-4.6-12.2-10.8-15.3-6.4-3.2-12.1-3.3-18.6 0zm16.8 4.1c3.1 1.6 6.2 5.8 7.1 9.5 1 3.9-1 9.3-5.1 13.9l-3.7 4.2-9-6.8c-4.9-3.7-10.3-8.3-11.9-10.1-3.3-3.9-2.9-4.9 4.2-9 7.3-4.3 12.2-4.8 18.4-1.7zM211 82.2c2 1.8 6.7 5.5 10.3 8.3 3.7 2.7 6.6 5.5 6.4 6.1-.3 1.3-64.7 64.4-65.7 64.4-1.3 0-20-18.2-20-19.4.1-2 61.4-62.6 63.4-62.6 1 0 3.5 1.5 5.6 3.2zm-93.8 65.4l4.7 5-7 6.9-7 6.9-5.4-5.4c-4.2-4.1-5.2-5.7-4.3-6.7.6-.7 1.5-1.3 2-1.3s3.2-2.5 6-5.5c2.8-3.1 5.4-5.4 5.7-5.3.4.2 2.8 2.6 5.3 5.4zm-16.4 15.7l5.2 5.3-18.1 17c-26.2 24.4-28.3 26.1-34.1 27.9-4.2 1.2-5.6 1.2-7.7.2-6.1-2.9-3-9 11.1-21.9C79.2 171.6 94.5 158 95 158c.3 0 2.9 2.4 5.8 5.3z"/><path d="M171.6 119.9c-2 2-3.6 4.4-3.6 5.4 0 2.1 3 3.7 7.3 3.7 2.3 0 4.1.8 5.7 2.5 2.2 2.3 5 3.4 5 1.9 0-.4-1.3-2.2-3-4.1-1.6-1.8-3-4.5-3-5.9 0-3.1-1.4-6-3.3-6.7-.8-.3-3 1.1-5.1 3.2zM154.4 133.1c-.4.6 2.2 4 6 7.7 6 6.1 6.7 6.5 8.2 5.1 1.4-1.5.9-2.2-5.3-7.8-7.1-6.4-7.8-6.8-8.9-5zM48.6 92.8c-3.7 6-9 19.3-11.7 29.7-2.1 7.9-2.4 11.3-2.4 27.5s.3 19.6 2.4 27.5c1.3 4.9 2.9 10.5 3.7 12.3 1.3 3.2 1.4 3.3 3.8 1.7l2.4-1.6-1.9-5.6c-3.7-10.9-5.2-20.4-5.2-34.3 0-18.5 3.1-32.5 11-48.5 3.3-6.8 3.4-7.4 2-10.1l-1.4-2.8-2.7 4.2zM247.2 92.1c-1.1 1.8-.8 3.1 2.6 10.2 7.6 16.1 10.6 29.4 10.5 48.2 0 11.9-.4 15.6-2.7 24.8-2.6 10.3-2.7 11-1 12.8.9 1 2 1.9 2.4 1.9.4 0 2-4.6 3.5-10.3 2.4-8.7 2.9-12.6 3.3-26.3.5-17.6-.6-25.5-5.4-40.3-2.8-8.5-9.4-22.3-10.9-22.8-.6-.2-1.6.6-2.3 1.8zM199.1 147.4c-.9 1.1-.9 1.9.1 3.5.7 1.2 1.8 2.1 2.4 2.1.6 0 1.6.6 2.2 1.3.9 1-.1 2.6-4.3 6.7l-5.5 5.4-3.1-3.3-3.1-3.4-2 2.1c-2.2 2.1-1.7 3.9 1.2 5 1 .4 10.8 9.1 21.7 19.3 25.5 24 29.6 27.5 34.1 29.8 10.5 5.3 20.2 2.3 20.2-6.2 0-5.4-3.5-9.8-19.2-23.8-18.5-16.5-38.8-36.1-38.8-37.4 0-1.2-2.1-2.5-4-2.5-.4 0-1.3.6-1.9 1.4zm25.2 25.3c8.9 8.1 20.4 18.9 25.5 23.9 8.1 8.1 9.2 9.6 9.2 12.6 0 5.1-3.4 6.4-10.7 4.3-4.9-1.4-7.7-3.7-28.3-22.8-12.7-11.6-23-21.6-23-22.2 0-1.1 9.1-10.5 10.2-10.5.5 0 8.1 6.6 17.1 14.7zM130.3 158.9c-1.8 1.5-3.3 3.2-3.3 3.7s2.7 3.9 5.9 7.4l5.9 6.5 3.9-3.8 3.8-3.7-6.5-6.4-6.5-6.5-3.2 2.8zM159.1 189.4l-4.4 4.5 7 7.8c12.6 14 21 25.3 25.4 34 3.7 7.2 4.4 9.6 4.7 15.7.3 6.1 0 8.4-2.2 13.6-1.4 3.5-2.3 6.6-2.1 6.8 1.1 1.1 16.1-12.3 36.4-32.2 12.4-12.2 17.1-18 15.7-19.4-.4-.3-2.7.5-5.2 1.7-4 2-5.7 2.3-13.3 1.9-7.1-.3-9.8-1-15.6-3.6-8.5-4-12.6-7.3-28.6-22.9-6.9-6.8-12.8-12.3-13-12.3-.3 0-2.4 2-4.8 4.4z"/><path d="M177 257.1c-13.9 4.1-37.1 4.2-52.4.4-5.7-1.4-7-1.5-7.7-.4-1.9 2.9-.3 4.3 6.6 6.2 14.3 3.8 41.1 3.4 56.8-1 5.2-1.4 5.7-1.8 5.7-4.4 0-3.3-.2-3.4-9-.8z"/></svg>